# xmcd
#
# Track frame offsets: 
#        150
#        10982
#        20664
#        29324
#        39858
#        50576
#        62146
#        73968
#        84543
#        91559
#        101549
#        112929
#        122680
#        132992
#        142807
#        151612
#        161884
#        173432
#        183445
#        191971
#        200948
#        211689
#        223511
#        234123
#        243176
#        251467
#        259806
#        268768
#        277605
#        288303
#        297929
#        309131
#        319460
#
# Disc length: 4384 seconds
#
# Revision: 1
# Processed by: cddbd v1.5.2PL0 Copyright (c) Steve Scherf et al.
# Submitted via: ExactAudioCopyFreeDBPlugin 1.0
#
DISCID=cd111e21
DTITLE=Don Gibson - Don Rocks
DYEAR=2008
DGENRE=Country
TTITLE0=Look Who's Blue
TTITLE1=Sweet Sweet Girl
TTITLE2=Blue Blue Day
TTITLE3=Didn't Work Out, Did It
TTITLE4=Who Cares (For Me)
TTITLE5=I Can Mend Your Broken Heart
TTITLE6=Bad Bad Day
TTITLE7=Sittin' Here Cryin'
TTITLE8=Won't Cha Come Back To Me
TTITLE9=If You Don't Know It
TTITLE10=Oh Lonesome Me
TTITLE11=Far Far Away
TTITLE12=Don't Tell Me Your Troubles
TTITLE13=I'm Movin' On
TTITLE14=Even Tho'
TTITLE15=Hurtin' Inside
TTITLE16=Sea Of Heartbreak
TTITLE17=What About Me
TTITLE18=Camptown Races
TTITLE19=What's The Reason I'm Not Pleasing You
TTITLE20=Satisfied
TTITLE21=I Sat Back And Let It Happen
TTITLE22=Lonesome Number One
TTITLE23=That Lonesome Valley
TTITLE24=Why Don't You Love Me
TTITLE25=Fireball Mail
TTITLE26=My Hands Are Tied
TTITLE27=Head Over Heels In Love With You
TTITLE28=There's A Big Wheel
TTITLE29=There She Goes (Let Her Go)
TTITLE30=Singing The Blues
TTITLE31=(Yes) I'm Hurting
TTITLE32=You Don't Knock
EXTD=
EXTT0=
EXTT1=
EXTT2=
EXTT3=
EXTT4=
EXTT5=
EXTT6=
EXTT7=
EXTT8=
EXTT9=
EXTT10=
EXTT11=
EXTT12=
EXTT13=
EXTT14=
EXTT15=
EXTT16=
EXTT17=
EXTT18=
EXTT19=
EXTT20=
EXTT21=
EXTT22=
EXTT23=
EXTT24=
EXTT25=
EXTT26=
EXTT27=
EXTT28=
EXTT29=
EXTT30=
EXTT31=
EXTT32=
PLAYORDER=
